<svg xmlns="http://www.w3.org/2000/svg" width="500" height="500" viewBox="0 0 500 500" fill="none"><path fill="#3A5EFB" d="M84.869 167.226c11.252 5.653 22.502 12.493 31.941 21.956a86.074 86.074 0 0 1 12.177 15.681 109.81 109.81 0 0 1 8.497 17.556c4.78 12.806 7.374 26.054 9.387 39.035.527 3.221 1.003 6.44 1.45 9.649l1.289 9.607-11.74 1.462c-1.882-15.112-3.357-30.641-2.065-46.394 1.23-15.684 5.352-31.665 13.714-45.663a81.24 81.24 0 0 1 7.066-10.039 67.615 67.615 0 0 1 8.67-8.888c.768-.708 1.604-1.321 2.421-1.962.829-.623 1.626-1.3 2.484-1.876 1.712-1.161 3.41-2.358 5.202-3.367a83.737 83.737 0 0 1 10.964-5.479 108.915 108.915 0 0 1 11.377-3.981c3.825-1.068 7.666-2.056 11.497-2.829 7.669-1.629 15.289-2.728 22.803-3.807l.741 14.24-6.696-.144c-7.275-.136-14.617-.526-22.015-1.124a151.737 151.737 0 0 1-22.5-3.326 75.62 75.62 0 0 1-22.166-8.806 53.648 53.648 0 0 1-9.787-7.751 50.468 50.468 0 0 1-7.612-9.899c-4.183-7.038-6.749-14.401-8.941-21.484a216.063 216.063 0 0 1-5.525-21.68 190.735 190.735 0 0 1-3.216-22.123c-.307-3.714-.547-7.432-.663-11.153l-.085-2.791c-.022-.93.001-1.862-.077-2.79-.107-1.86-.13-3.721-.198-5.583l12.623.597c-1.061 13.584-2.196 27.4-4.814 41.283-.357 1.732-.683 3.472-1.068 5.2l-1.295 5.176-1.479 5.156-1.682 5.121a113 113 0 0 1-9.087 19.807 90.712 90.712 0 0 1-28.374 29.585 54.714 54.714 0 0 1-14.55 6.924c-1.886.54-3.812.929-5.76 1.163-.868.095-1.686.156-2.454.185l-.567.016-.46-.057-.932-.127c-3.714-.543-5.776-1.189-2.914-4.002.414-.391.851-.755 1.31-1.091.24-.187.58-.398.796-.575.2-.168.41-.344.63-.526.875-.726 1.932-1.435 3.099-2.274 1.157-.86 2.502-1.677 3.915-2.687l2.246-1.499c.767-.543 1.569-1.093 2.406-1.653a120.342 120.342 0 0 0 12.38-9.74 103.618 103.618 0 0 0 11.112-11.468 86.071 86.071 0 0 0 11.603-18.527 121.053 121.053 0 0 0 7.365-21.08c3.865-14.588 5.613-29.933 7.253-45.4l.001-.009a5.05 5.05 0 0 1 10.07.486c.023 2.51-.06 5.023.116 7.53.159 2.506.347 5.01.601 7.506.485 4.995 1.206 9.96 2.029 14.899a194.829 194.829 0 0 0 7.136 29.109 110.255 110.255 0 0 0 7.75 18.824 46.986 46.986 0 0 0 5.228 7.667 46.414 46.414 0 0 0 6.428 6.099 48.347 48.347 0 0 0 6.948 4.333 62.901 62.901 0 0 0 7.868 3.232 94.784 94.784 0 0 0 17.295 3.785c12.024 1.565 24.521 1.793 37.089 2.257l.074.003a6.279 6.279 0 0 1 6.043 5.987 6.28 6.28 0 0 1-5.466 6.518c-9.542 1.239-18.932 2.534-27.955 4.637-8.987 2.148-17.689 4.963-25.373 9.381a60.393 60.393 0 0 0-9.245 6.498 61.225 61.225 0 0 0-7.81 8.262 74.062 74.062 0 0 0-10.887 20.385 96.067 96.067 0 0 0-4.994 22.991 165.27 165.27 0 0 0-.496 23.974c.333 7.781 1.125 15.608 2.043 23.462l.006.052a5.36 5.36 0 0 1-4.686 5.941 5.358 5.358 0 0 1-5.953-4.669c-1.542-12.615-3.17-25.123-6.086-37.18a145.013 145.013 0 0 0-5.242-17.688 96.544 96.544 0 0 0-7.904-16.32c-.825-1.253-1.59-2.552-2.457-3.772l-2.68-3.601a85.863 85.863 0 0 0-6.006-6.642 88.454 88.454 0 0 0-14.322-11.147 133.752 133.752 0 0 0-7.987-4.673 170.51 170.51 0 0 0-4.13-2.165l-2.094-1.047-1.046-.513-.994-.446c-1.297-.623-2.72-1.128-4.103-1.675-1.438-.468-2.844-1.001-4.32-1.405-2.908-.904-5.91-1.59-8.909-2.24a115.426 115.426 0 0 0-17.655-2.279c-5.752-.283-11.429.055-16.146 1.689l-1.356-5.395-.005-.356h.173l.177.001c.115.002.233.005.4-.003l.917-.03 1.867-.078 3.736-.167 7.367-.293c4.858-.175 9.602-.281 14.236-.378 1.577-.06 3.156.002 4.723.184.608.049.971.232 1.532.23a1.79 1.79 0 0 1 1.03.291l.92-1.074c-.13.49-.31.706-.224.75.058.044.378-.095.67-.563a.457.457 0 0 0 .045-.382.451.451 0 0 0-.871.063l-.287 1.618c-.053.3-.458.757-1.208 1.265a8.84 8.84 0 0 1-1.692 1.086 26.033 26.033 0 0 1-5.838 2.038c-4.377 1.007-8.785 1.897-13.258 2.743-2.235.422-4.486.827-6.752 1.217l-3.43.568-1.763.27-.917.13c-.345.046-.86.092-1.284.128a6.523 6.523 0 0 1-3.425-12.363l.438-.211a40.167 40.167 0 0 1 11.115-3.326c1.782-.217 3.6-.495 5.346-.559.88-.048 1.77-.12 2.643-.142l2.61-.021a97.477 97.477 0 0 1 20.57 2.403c3.412.737 6.784 1.643 10.105 2.717l2.52.84 2.53.963c.836.299 1.698.705 2.548 1.075l1.277.565 1.138.549c.066-.05.127-.096.202-.143ZM383.984 196.417a87.877 87.877 0 0 1 14.021 23.437c.42 1.064.872 2.113 1.258 3.188l1.03 3.277c.327 1.096.712 2.173.986 3.285l.755 3.354c.23 1.122.542 2.224.698 3.361l.466 3.409.229 1.703c.079.562.155 1.13.194 1.755.093 1.226.139 2.492.108 3.809a23.81 23.81 0 0 1-1.143 6.975 17.794 17.794 0 0 1-1.798 3.744 15.657 15.657 0 0 1-2.98 3.343l-.082.068a6.15 6.15 0 0 1-6.921.679 6.156 6.156 0 0 1-3.133-6.209 151.84 151.84 0 0 1 3.272-16.925 105.573 105.573 0 0 1 10.57-26.644 82.708 82.708 0 0 1 18.662-22.493 74.85 74.85 0 0 1 26.109-13.973 63.093 63.093 0 0 1 30.212-1.42 7.26 7.26 0 0 1 5.731 6.145 7.265 7.265 0 0 1-3.901 7.442l-.133.067a34.732 34.732 0 0 1-10.372 3.23 50.464 50.464 0 0 1-10.01.398c-3.202-.158-6.253-.538-9.186-.959-2.924-.43-5.715-.848-8.745-1.401a60.756 60.756 0 0 1-12.717-3.597 37.02 37.02 0 0 1-6.4-3.462 34.5 34.5 0 0 1-5.663-4.839 43.825 43.825 0 0 1-7.671-11.732 68.69 68.69 0 0 1-4.149-12.33 97.331 97.331 0 0 1 .98-49.786l.006-.024a7.545 7.545 0 0 1 13.73-1.782 27.906 27.906 0 0 1 3.717 13.481 43.812 43.812 0 0 1-1.526 12.301c-.482 1.933-1.106 3.721-1.7 5.528-.664 1.782-1.312 3.574-2.1 5.302a75.579 75.579 0 0 1-5.278 10.068 79.085 79.085 0 0 1-33.328 29.985 70.372 70.372 0 0 1-27.942 6.627 33.195 33.195 0 0 1-11.201-1.538c-.734-.246-1.42-.5-2.06-.767a25.115 25.115 0 0 1-1.778-.899 13.8 13.8 0 0 1-2.773-1.955c-2.212-1.992-1.792-3.596.405-4.645 2.205-1.026 6.189-1.568 11.601-2.112l2.594-.28 2.624-.35c1.756-.268 3.535-.491 5.307-.823a90.468 90.468 0 0 0 10.473-2.504 60.369 60.369 0 0 0 18.411-9.438A64.205 64.205 0 0 0 406.63 125.7a33.174 33.174 0 0 0 1.378-9.473 13.997 13.997 0 0 0-2.05-7.512l11.795-1.551a78.797 78.797 0 0 0-2.243 14.565c-.561 9.073.675 18.403 2.238 26.976 1.082 6.109 2.978 11.893 6.059 16.339a20.692 20.692 0 0 0 5.42 5.447 27.717 27.717 0 0 0 7.51 3.33 78.424 78.424 0 0 0 9.21 1.957c3.31.535 6.605 1.072 9.705 1.389 6.237.671 11.981.416 16.373-1.736l1.517 12.208-2.177-.414-1.087-.214-1.104-.13-2.209-.268-2.231-.112a49.14 49.14 0 0 0-15.034 1.761 59.037 59.037 0 0 0-14.198 6.084 63.01 63.01 0 0 0-12.295 9.493 72.286 72.286 0 0 0-9.872 12.258c-7.784 12.026-12.376 26.268-14.282 40.823l-8.613-4.64a3.752 3.752 0 0 0 1.125-1.629c.359-.986.563-2.022.606-3.071.068-1.303.034-2.61-.103-3.908l-.619-4.341a38.908 38.908 0 0 0-.879-4.305l-.492-2.146c-.15-.72-.432-1.405-.64-2.11-.467-1.395-.864-2.816-1.38-4.197l-1.691-4.094a79.83 79.83 0 0 0-9.083-15.265 85.178 85.178 0 0 0-12.398-12.842 99.812 99.812 0 0 0-18.73-12.099c-.401-.21-.796-.436-1.2-.635l-1.231-.542-2.447-1.107c-1.606-.816-3.28-1.358-4.92-2.018l-2.458-.981a25.979 25.979 0 0 0-2.404-.753 8.3 8.3 0 0 0-4.87-.021c-.389.148-.742.331-1.021.457l-.016.011a.054.054 0 0 0-.01.016l-.032.09c-.105.328-.083.682.063.994.132.285.32.541.554.751.423.378.952.616 1.515.682.266.036.537.015.794-.061.23-.045.457-.106.679-.183.373-.141.645-.23.799-.131.149.093.194.386-.027.887a2.9 2.9 0 0 1-.633.811c-.309.37-.712.65-1.167.812a4.96 4.96 0 0 1-3.417.111 5.052 5.052 0 0 1-2.15-1.4 5.185 5.185 0 0 1-.976-1.593 5.561 5.561 0 0 1-.346-2.175 2.931 2.931 0 0 1 .527-1.566l.809-1.16a9.092 9.092 0 0 1 1.48-1.654c.312-.273.643-.522.991-.747a9.23 9.23 0 0 1 1.15-.546 15.595 15.595 0 0 1 5.86-1.014c1.563.006 3.123.143 4.664.409l4.234.674 1.066.183 1.044.264 2.095.54a73.964 73.964 0 0 1 16.251 6.351 80.966 80.966 0 0 1 22.356 18.466l.222-.078ZM252.124 347.553l4.461 2.497 4.292 2.784 1.068.702 1.025.768 2.047 1.539c.677.518 1.368 1.019 2.033 1.552l1.938 1.679a91.19 91.19 0 0 1 7.386 7.101l3.345 3.881c1.095 1.308 2.061 2.715 3.092 4.069a95.183 95.183 0 0 1 9.998 17.664 100.798 100.798 0 0 1 5.894 19.3c.299 1.758.664 3.506.891 5.275l.589 5.321.26 5.35c.092 1.783-.025 3.573-.031 5.357a97.518 97.518 0 0 1-3.037 21.182l-1.397 4.875a6.042 6.042 0 0 1-10.37 2.3 6.036 6.036 0 0 1-1.484-3.964l.002-.282c.013-15.731-.02-31.953 3.003-48.247a109.134 109.134 0 0 1 7.245-23.987 79.474 79.474 0 0 1 13.801-21.613 76.948 76.948 0 0 1 20.46-15.702 119.95 119.95 0 0 1 23.317-9.216 184.245 184.245 0 0 1 11.942-2.958c4.003-.847 8.104-1.592 12.339-2.055a74.265 74.265 0 0 1 13.048-.387 53.526 53.526 0 0 1 13.425 2.54 7.317 7.317 0 0 1 5.048 6.74 7.316 7.316 0 0 1-4.633 7.031l-.157.061a62.716 62.716 0 0 1-21.392 3.936 136.096 136.096 0 0 1-23.14-1.84 178.995 178.995 0 0 1-22.473-4.604 97.256 97.256 0 0 1-11.223-3.86 74.054 74.054 0 0 1-10.873-5.492 64.513 64.513 0 0 1-9.968-7.496 62.773 62.773 0 0 1-8.261-9.338 92.153 92.153 0 0 1-11.189-21.144 161.049 161.049 0 0 1-10.077-44.93 151.7 151.7 0 0 1-.325-5.761 92.453 92.453 0 0 1-.086-2.884c-.015-.97-.05-1.868-.03-3.047 0-2.592.383-5.169 1.137-7.647a16.312 16.312 0 0 1 2.288-4.582 13.88 13.88 0 0 1 4.516-4.012l.076-.042a7.58 7.58 0 0 1 2.816-.88 7.58 7.58 0 0 1 5.553 1.634 7.558 7.558 0 0 1 1.891 2.265c.51.945.818 1.986.902 3.056a140.046 140.046 0 0 1-22.512 86.885 86.312 86.312 0 0 1-13.83 16.265 67.482 67.482 0 0 1-8.637 6.625 58.905 58.905 0 0 1-9.686 5.059 38.666 38.666 0 0 1-16.974 3.029 23.268 23.268 0 0 1-10.611-3.01c-3.49-2.223-2.798-3.757.241-4.472 1.546-.446 3.705-.722 6.417-1.24a77.036 77.036 0 0 0 9.683-2.465 52.883 52.883 0 0 0 13.66-6.964 69.265 69.265 0 0 0 11.87-10.782 98.4 98.4 0 0 0 13.019-19.342 120.52 120.52 0 0 0 8.943-21.832 124.092 124.092 0 0 0 4.8-46.662l8.993 4.828c.002.006.015.024.002.003l-.034-.049a.298.298 0 0 0 .046.057v.018a1.245 1.245 0 0 0-.128.235 6.096 6.096 0 0 0-.449 1.735 18.38 18.38 0 0 0-.142 2.824l.133 3.574c.248 4.86.763 9.701 1.467 14.508a143.072 143.072 0 0 0 7.223 28.135 93.524 93.524 0 0 0 9.016 18.471 61.826 61.826 0 0 0 5.883 7.738 46.587 46.587 0 0 0 3.29 3.332c.582.515 1.124 1.067 1.72 1.563l1.789 1.482a60.785 60.785 0 0 0 17.779 9.428 127.933 127.933 0 0 0 20.808 5.141 155.053 155.053 0 0 0 21.442 2.46 51.994 51.994 0 0 0 19.683-2.854l.228 12.234c-6.254-2.127-13.317-2.475-20.571-1.745-3.629.343-7.313.944-11.035 1.66a188.15 188.15 0 0 0-11.069 2.489 95.306 95.306 0 0 0-22.391 8.627 60.603 60.603 0 0 0-17.953 14.662 72.586 72.586 0 0 0-11.555 20.495 110.347 110.347 0 0 0-5.82 23.486c-1.803 12.629-1.995 25.674-2.162 38.894l-10.674-1.752c7.11-20.958 4.63-45.116-6.011-64.764-.695-1.21-1.313-2.471-2.07-3.644l-2.275-3.518c-.774-1.163-1.66-2.242-2.483-3.37-.427-.551-.82-1.132-1.273-1.662l-1.373-1.576a83.558 83.558 0 0 0-5.775-6.053c-2.125-1.813-4.185-3.714-6.487-5.321a41.51 41.51 0 0 0-3.437-2.422c-1.187-.748-2.346-1.544-3.555-2.259l-3.692-2.041c-1.221-.699-2.535-1.221-3.797-1.844a81.529 81.529 0 0 0-15.972-5.499 95.284 95.284 0 0 0-39.932-.776l-.138-5.245a63.718 63.718 0 0 0 24.457 2.481c4.675-.44 7.048-.566 7.028.44-.031.444-.649 1.214-1.98 2.091a19.91 19.91 0 0 1-2.529 1.412c-.511.25-1.07.502-1.68.736-.304.117-.618.253-.948.359-.334.097-.678.192-1.034.286a59.735 59.735 0 0 1-25.306 1.095 6.336 6.336 0 0 1-.861-12.266l.534-.171a84.815 84.815 0 0 1 25.862-4.008 83.01 83.01 0 0 1 21.355 2.73 99.859 99.859 0 0 1 20.276 7.68c.068-.047.133-.09.212-.133Z"/></svg>