<svg xmlns="http://www.w3.org/2000/svg" viewBox="0 0 800 800" fill="none"><path fill="#0A0E0B" fill-rule="evenodd" d="M400 800c220.914 0 400-179.086 400-400S620.914 0 400 0 0 179.086 0 400s179.086 400 400 400ZM292.227 342.872a139.482 139.482 0 0 1 27.189-47.293 139.533 139.533 0 0 1 43.254-33.256 138.035 138.035 0 0 1 52.601-14.362 138.173 138.173 0 0 1 54.059 7.114 54.966 54.966 0 0 0 21.811 3.908 55.042 55.042 0 0 0 21.578-5.031 55.035 55.035 0 0 0 17.83-13.153 54.768 54.768 0 0 0 11.184-19.132 54.968 54.968 0 0 0 2.71-21.994 54.976 54.976 0 0 0-6.199-21.274 54.801 54.801 0 0 0-14.11-17.083 55.152 55.152 0 0 0-19.709-10.125 248.65 248.65 0 0 0-96.531-12.721 248.964 248.964 0 0 0-94.027 25.292 248.8 248.8 0 0 0-124.379 140.522 55.501 55.501 0 0 0-1.45 3.578 249.842 249.842 0 0 0 13.037 190.616 249.898 249.898 0 0 0 143.911 125.677 55.045 55.045 0 0 0 7.774 2.203 249.145 249.145 0 0 0 89.196 10.299 249.013 249.013 0 0 0 94.093-25.337 248.976 248.976 0 0 0 77.183-59.49 249.064 249.064 0 0 0 48.467-84.543 54.837 54.837 0 0 0 2.777-21.301 54.933 54.933 0 0 0-5.586-20.741 55.094 55.094 0 0 0-13.099-17.03 55.037 55.037 0 0 0-18.609-10.719 54.84 54.84 0 0 0-21.301-2.777 54.974 54.974 0 0 0-20.742 5.586 54.968 54.968 0 0 0-17.02 13.095 55.664 55.664 0 0 0-10.688 18.627 139.58 139.58 0 0 1-27.199 47.298 139.674 139.674 0 0 1-43.249 33.264 138.242 138.242 0 0 1-52.605 14.353 138.256 138.256 0 0 1-54.06-7.114 55.008 55.008 0 0 0-4.129-1.208 139.584 139.584 0 0 1-43.464-25.843 139.692 139.692 0 0 1-33.265-43.249 138.044 138.044 0 0 1-14.37-52.597 138.195 138.195 0 0 1 7.054-53.86l.083-.199Z" clip-rule="evenodd"/></svg>